<mxfile host="app.diagrams.net" modified="2021-06-17T06:48:48.382Z" agent="5.0 (Windows NT 10.0; Win64; x64) AppleWebKit/537.36 (KHTML, like Gecko) Chrome/86.0.4240.198 Safari/537.36" etag="sdjLxNoYFuwLiVbEmZih" version="14.7.9" type="github">
  <diagram name="Page-1" id="2a216829-ef6e-dabb-86c1-c78162f3ba2b">
    <mxGraphModel dx="1662" dy="794" grid="1" gridSize="10" guides="1" tooltips="1" connect="1" arrows="1" fold="1" page="1" pageScale="1" pageWidth="850" pageHeight="1100" background="none" math="0" shadow="0">
      <root>
        <mxCell id="0" />
        <mxCell id="1" parent="0" />
        <mxCell id="A6VqSCoXwRXT_nMqE62j-7" style="edgeStyle=orthogonalEdgeStyle;rounded=0;orthogonalLoop=1;jettySize=auto;html=1;" parent="1" source="A6VqSCoXwRXT_nMqE62j-2" edge="1">
          <mxGeometry relative="1" as="geometry">
            <mxPoint x="390" y="390" as="targetPoint" />
          </mxGeometry>
        </mxCell>
        <mxCell id="A6VqSCoXwRXT_nMqE62j-2" value="BatchCompleteTaskReqVO" style="swimlane;" parent="1" vertex="1">
          <mxGeometry x="70" y="290" width="200" height="200" as="geometry" />
        </mxCell>
        <mxCell id="A6VqSCoXwRXT_nMqE62j-3" value="&lt;pre style=&quot;background-color: #282c34 ; color: #bbbbbb ; font-family: &amp;#34;jetbrains mono&amp;#34; , monospace ; font-size: 10.5pt&quot;&gt;&lt;span style=&quot;color: #e5c07b&quot;&gt;List&lt;/span&gt;&lt;span style=&quot;color: #d19a66&quot;&gt;&amp;lt;&lt;/span&gt;&lt;span style=&quot;color: #e5c07b&quot;&gt;CompleteTaskReVO&lt;/span&gt;&lt;span style=&quot;color: #d19a66&quot;&gt;&amp;gt;&lt;/span&gt;&lt;/pre&gt;" style="text;html=1;align=center;verticalAlign=middle;resizable=0;points=[];autosize=1;strokeColor=none;" parent="A6VqSCoXwRXT_nMqE62j-2" vertex="1">
          <mxGeometry x="15" y="10" width="170" height="50" as="geometry" />
        </mxCell>
        <mxCell id="A6VqSCoXwRXT_nMqE62j-6" value="&lt;pre style=&quot;background-color: #282c34 ; color: #bbbbbb ; font-family: &amp;#34;jetbrains mono&amp;#34; , monospace ; font-size: 10.5pt&quot;&gt;&lt;span style=&quot;color: #ef596f&quot;&gt;taskId：任务节点id&lt;/span&gt;&lt;/pre&gt;&lt;pre style=&quot;background-color: #282c34 ; color: #bbbbbb ; font-family: &amp;#34;jetbrains mono&amp;#34; , monospace ; font-size: 10.5pt&quot;&gt;&lt;pre style=&quot;font-family: &amp;#34;jetbrains mono&amp;#34; , monospace ; font-size: 10.5pt&quot;&gt;&lt;span style=&quot;color: #ef596f&quot;&gt;comment&lt;/span&gt;&lt;/pre&gt;&lt;pre style=&quot;font-family: &amp;#34;jetbrains mono&amp;#34; , monospace ; font-size: 10.5pt&quot;&gt;&lt;span style=&quot;color: #ef596f&quot;&gt;taskInfoId&lt;/span&gt;&lt;/pre&gt;&lt;pre style=&quot;font-family: &amp;#34;jetbrains mono&amp;#34; , monospace ; font-size: 10.5pt&quot;&gt;&lt;span style=&quot;color: #ef596f&quot;&gt;endTime&lt;/span&gt;&lt;/pre&gt;&lt;pre style=&quot;font-family: &amp;#34;jetbrains mono&amp;#34; , monospace ; font-size: 10.5pt&quot;&gt;&lt;span style=&quot;color: #ef596f&quot;&gt;&lt;br&gt;&lt;/span&gt;&lt;/pre&gt;&lt;/pre&gt;" style="text;html=1;strokeColor=none;fillColor=none;align=center;verticalAlign=middle;whiteSpace=wrap;rounded=0;" parent="A6VqSCoXwRXT_nMqE62j-2" vertex="1">
          <mxGeometry x="80" y="110" width="40" height="20" as="geometry" />
        </mxCell>
        <mxCell id="A6VqSCoXwRXT_nMqE62j-10" style="edgeStyle=orthogonalEdgeStyle;rounded=0;orthogonalLoop=1;jettySize=auto;html=1;" parent="1" source="A6VqSCoXwRXT_nMqE62j-9" edge="1">
          <mxGeometry relative="1" as="geometry">
            <mxPoint x="440" y="510" as="targetPoint" />
          </mxGeometry>
        </mxCell>
        <mxCell id="A6VqSCoXwRXT_nMqE62j-14" style="edgeStyle=orthogonalEdgeStyle;rounded=0;orthogonalLoop=1;jettySize=auto;html=1;exitX=1;exitY=0.5;exitDx=0;exitDy=0;" parent="1" source="A6VqSCoXwRXT_nMqE62j-9" edge="1">
          <mxGeometry relative="1" as="geometry">
            <mxPoint x="590" y="390" as="targetPoint" />
          </mxGeometry>
        </mxCell>
        <mxCell id="A6VqSCoXwRXT_nMqE62j-9" value="&lt;pre style=&quot;background-color: #282c34 ; color: #bbbbbb ; font-family: &amp;#34;jetbrains mono&amp;#34; , monospace ; font-size: 10.5pt&quot;&gt;&lt;span style=&quot;color: #ef596f&quot;&gt;taskService&lt;/span&gt;&lt;/pre&gt;" style="shape=step;perimeter=stepPerimeter;whiteSpace=wrap;html=1;fixedSize=1;" parent="1" vertex="1">
          <mxGeometry x="380" y="350" width="120" height="80" as="geometry" />
        </mxCell>
        <mxCell id="A6VqSCoXwRXT_nMqE62j-11" value="taskId" style="text;html=1;strokeColor=none;fillColor=none;align=center;verticalAlign=middle;whiteSpace=wrap;rounded=0;" parent="1" vertex="1">
          <mxGeometry x="450" y="460" width="40" height="20" as="geometry" />
        </mxCell>
        <mxCell id="A6VqSCoXwRXT_nMqE62j-43" style="edgeStyle=orthogonalEdgeStyle;curved=1;rounded=0;orthogonalLoop=1;jettySize=auto;html=1;entryX=0.5;entryY=1;entryDx=0;entryDy=0;" parent="1" source="A6VqSCoXwRXT_nMqE62j-12" target="A6VqSCoXwRXT_nMqE62j-41" edge="1">
          <mxGeometry relative="1" as="geometry" />
        </mxCell>
        <mxCell id="A6VqSCoXwRXT_nMqE62j-50" style="edgeStyle=orthogonalEdgeStyle;curved=1;rounded=0;orthogonalLoop=1;jettySize=auto;html=1;" parent="1" source="A6VqSCoXwRXT_nMqE62j-12" edge="1">
          <mxGeometry relative="1" as="geometry">
            <mxPoint x="440" y="790" as="targetPoint" />
          </mxGeometry>
        </mxCell>
        <mxCell id="A6VqSCoXwRXT_nMqE62j-12" value="&lt;pre style=&quot;background-color: #282c34 ; color: #bbbbbb ; font-family: &amp;#34;jetbrains mono&amp;#34; , monospace ; font-size: 10.5pt&quot;&gt;&lt;span style=&quot;color: #e5c07b&quot;&gt;Task&lt;/span&gt;&lt;/pre&gt;" style="ellipse;whiteSpace=wrap;html=1;" parent="1" vertex="1">
          <mxGeometry x="380" y="510" width="120" height="80" as="geometry" />
        </mxCell>
        <mxCell id="A6VqSCoXwRXT_nMqE62j-13" value="获取当前任务（需要为带分解节点" style="text;html=1;strokeColor=none;fillColor=none;align=center;verticalAlign=middle;whiteSpace=wrap;rounded=0;" parent="1" vertex="1">
          <mxGeometry x="377.5" y="310" width="125" height="20" as="geometry" />
        </mxCell>
        <mxCell id="A6VqSCoXwRXT_nMqE62j-16" style="edgeStyle=orthogonalEdgeStyle;rounded=0;orthogonalLoop=1;jettySize=auto;html=1;entryX=0.5;entryY=0;entryDx=0;entryDy=0;entryPerimeter=0;" parent="1" source="A6VqSCoXwRXT_nMqE62j-15" target="A6VqSCoXwRXT_nMqE62j-18" edge="1">
          <mxGeometry relative="1" as="geometry">
            <mxPoint x="630" y="510" as="targetPoint" />
          </mxGeometry>
        </mxCell>
        <mxCell id="A6VqSCoXwRXT_nMqE62j-102" style="edgeStyle=orthogonalEdgeStyle;rounded=0;orthogonalLoop=1;jettySize=auto;html=1;" parent="1" source="A6VqSCoXwRXT_nMqE62j-15" target="A6VqSCoXwRXT_nMqE62j-38" edge="1">
          <mxGeometry relative="1" as="geometry" />
        </mxCell>
        <mxCell id="A6VqSCoXwRXT_nMqE62j-15" value="&lt;pre style=&quot;background-color: #282c34 ; color: #bbbbbb ; font-family: &amp;#34;jetbrains mono&amp;#34; , monospace ; font-size: 10.5pt&quot;&gt;&lt;span style=&quot;color: #ef596f&quot;&gt;taskInfoService&lt;/span&gt;&lt;/pre&gt;" style="shape=step;perimeter=stepPerimeter;whiteSpace=wrap;html=1;fixedSize=1;" parent="1" vertex="1">
          <mxGeometry x="570" y="350" width="120" height="80" as="geometry" />
        </mxCell>
        <mxCell id="A6VqSCoXwRXT_nMqE62j-17" value="&lt;pre style=&quot;color: rgb(187 , 187 , 187) ; font-size: 10.5pt ; font-family: &amp;#34;jetbrains mono&amp;#34; , monospace&quot;&gt;&lt;span style=&quot;color: rgb(239 , 89 , 111)&quot;&gt;taskInfoId&lt;/span&gt;&lt;/pre&gt;" style="text;html=1;strokeColor=none;fillColor=none;align=center;verticalAlign=middle;whiteSpace=wrap;rounded=0;" parent="1" vertex="1">
          <mxGeometry x="640" y="460" width="40" height="20" as="geometry" />
        </mxCell>
        <mxCell id="A6VqSCoXwRXT_nMqE62j-22" style="edgeStyle=orthogonalEdgeStyle;rounded=0;orthogonalLoop=1;jettySize=auto;html=1;entryX=0.5;entryY=0;entryDx=0;entryDy=0;" parent="1" source="A6VqSCoXwRXT_nMqE62j-18" target="A6VqSCoXwRXT_nMqE62j-21" edge="1">
          <mxGeometry relative="1" as="geometry" />
        </mxCell>
        <mxCell id="A6VqSCoXwRXT_nMqE62j-18" value="&lt;pre style=&quot;background-color: #282c34 ; color: #bbbbbb ; font-family: &amp;#34;jetbrains mono&amp;#34; , monospace ; font-size: 10.5pt&quot;&gt;&lt;span style=&quot;color: #89ca78&quot;&gt;t_task_info&lt;/span&gt;&lt;/pre&gt;" style="shape=cylinder3;whiteSpace=wrap;html=1;boundedLbl=1;backgroundOutline=1;size=15;" parent="1" vertex="1">
          <mxGeometry x="600" y="520" width="60" height="80" as="geometry" />
        </mxCell>
        <mxCell id="A6VqSCoXwRXT_nMqE62j-20" value="获取重点任务" style="text;html=1;strokeColor=none;fillColor=none;align=center;verticalAlign=middle;whiteSpace=wrap;rounded=0;" parent="1" vertex="1">
          <mxGeometry x="585" y="310" width="90" height="20" as="geometry" />
        </mxCell>
        <mxCell id="A6VqSCoXwRXT_nMqE62j-23" style="edgeStyle=orthogonalEdgeStyle;rounded=0;orthogonalLoop=1;jettySize=auto;html=1;entryX=1;entryY=0;entryDx=0;entryDy=27.5;entryPerimeter=0;" parent="1" source="A6VqSCoXwRXT_nMqE62j-21" target="A6VqSCoXwRXT_nMqE62j-18" edge="1">
          <mxGeometry relative="1" as="geometry">
            <Array as="points">
              <mxPoint x="690" y="635" />
              <mxPoint x="700" y="635" />
              <mxPoint x="700" y="548" />
            </Array>
          </mxGeometry>
        </mxCell>
        <mxCell id="A6VqSCoXwRXT_nMqE62j-98" style="edgeStyle=orthogonalEdgeStyle;rounded=0;orthogonalLoop=1;jettySize=auto;html=1;" parent="1" source="A6VqSCoXwRXT_nMqE62j-21" target="A6VqSCoXwRXT_nMqE62j-97" edge="1">
          <mxGeometry relative="1" as="geometry" />
        </mxCell>
        <mxCell id="A6VqSCoXwRXT_nMqE62j-21" value="&lt;pre style=&quot;background-color: #282c34 ; color: #bbbbbb ; font-family: &amp;#34;jetbrains mono&amp;#34; , monospace ; font-size: 10.5pt&quot;&gt;&lt;span style=&quot;color: #e5c07b&quot;&gt;TaskInfo&lt;/span&gt;&lt;/pre&gt;" style="ellipse;whiteSpace=wrap;html=1;" parent="1" vertex="1">
          <mxGeometry x="570" y="670" width="120" height="80" as="geometry" />
        </mxCell>
        <mxCell id="A6VqSCoXwRXT_nMqE62j-27" value="&lt;pre style=&quot;color: rgb(187 , 187 , 187) ; font-size: 10.5pt ; font-family: &amp;#34;jetbrains mono&amp;#34; , monospace&quot;&gt;&lt;span style=&quot;color: rgb(239 , 89 , 111)&quot;&gt;endTime&lt;/span&gt;&lt;/pre&gt;" style="text;html=1;strokeColor=none;fillColor=none;align=center;verticalAlign=middle;whiteSpace=wrap;rounded=0;" parent="1" vertex="1">
          <mxGeometry x="700" y="650" width="40" height="20" as="geometry" />
        </mxCell>
        <mxCell id="A6VqSCoXwRXT_nMqE62j-30" style="edgeStyle=orthogonalEdgeStyle;curved=1;rounded=0;orthogonalLoop=1;jettySize=auto;html=1;entryX=0.5;entryY=1;entryDx=0;entryDy=0;" parent="1" source="A6VqSCoXwRXT_nMqE62j-6" target="A6VqSCoXwRXT_nMqE62j-27" edge="1">
          <mxGeometry relative="1" as="geometry">
            <Array as="points">
              <mxPoint x="170" y="680" />
              <mxPoint x="720" y="680" />
            </Array>
          </mxGeometry>
        </mxCell>
        <mxCell id="A6VqSCoXwRXT_nMqE62j-32" value="遍历list" style="text;html=1;strokeColor=none;fillColor=none;align=center;verticalAlign=middle;whiteSpace=wrap;rounded=0;" parent="1" vertex="1">
          <mxGeometry x="310" y="360" width="40" height="20" as="geometry" />
        </mxCell>
        <mxCell id="TLC4FxBc1BaUloefRsDS-1" style="edgeStyle=orthogonalEdgeStyle;rounded=0;orthogonalLoop=1;jettySize=auto;html=1;entryX=0.092;entryY=0.025;entryDx=0;entryDy=0;entryPerimeter=0;curved=1;" parent="1" source="A6VqSCoXwRXT_nMqE62j-33" target="A6VqSCoXwRXT_nMqE62j-69" edge="1">
          <mxGeometry relative="1" as="geometry">
            <Array as="points">
              <mxPoint x="790" y="140" />
              <mxPoint x="1471" y="140" />
            </Array>
          </mxGeometry>
        </mxCell>
        <mxCell id="A6VqSCoXwRXT_nMqE62j-33" value="&lt;pre style=&quot;background-color: #282c34 ; color: #bbbbbb ; font-family: &amp;#34;jetbrains mono&amp;#34; , monospace ; font-size: 10.5pt&quot;&gt;&lt;span style=&quot;color: #e5c07b&quot;&gt;CompleteTaskReqVO&lt;/span&gt;&lt;/pre&gt;" style="ellipse;whiteSpace=wrap;html=1;" parent="1" vertex="1">
          <mxGeometry x="730" y="190" width="120" height="80" as="geometry" />
        </mxCell>
        <mxCell id="A6VqSCoXwRXT_nMqE62j-36" value="属性复制" style="text;html=1;strokeColor=none;fillColor=none;align=center;verticalAlign=middle;whiteSpace=wrap;rounded=0;" parent="1" vertex="1">
          <mxGeometry x="400" y="230" width="80" height="20" as="geometry" />
        </mxCell>
        <mxCell id="A6VqSCoXwRXT_nMqE62j-40" style="edgeStyle=orthogonalEdgeStyle;curved=1;rounded=0;orthogonalLoop=1;jettySize=auto;html=1;entryX=0.5;entryY=0;entryDx=0;entryDy=0;" parent="1" source="A6VqSCoXwRXT_nMqE62j-38" target="A6VqSCoXwRXT_nMqE62j-44" edge="1">
          <mxGeometry relative="1" as="geometry">
            <mxPoint x="920" y="550" as="targetPoint" />
          </mxGeometry>
        </mxCell>
        <mxCell id="A6VqSCoXwRXT_nMqE62j-59" style="edgeStyle=orthogonalEdgeStyle;curved=1;rounded=0;orthogonalLoop=1;jettySize=auto;html=1;entryX=0;entryY=0.5;entryDx=0;entryDy=0;" parent="1" source="A6VqSCoXwRXT_nMqE62j-38" target="A6VqSCoXwRXT_nMqE62j-60" edge="1">
          <mxGeometry relative="1" as="geometry">
            <mxPoint x="1280" y="410" as="targetPoint" />
          </mxGeometry>
        </mxCell>
        <mxCell id="A6VqSCoXwRXT_nMqE62j-38" value="&lt;pre style=&quot;background-color: #282c34 ; color: #bbbbbb ; font-family: &amp;#34;jetbrains mono&amp;#34; , monospace ; font-size: 10.5pt&quot;&gt;&lt;span style=&quot;color: #ef596f&quot;&gt;runtimeService&lt;/span&gt;&lt;/pre&gt;" style="shape=step;perimeter=stepPerimeter;whiteSpace=wrap;html=1;fixedSize=1;" parent="1" vertex="1">
          <mxGeometry x="860" y="360" width="120" height="80" as="geometry" />
        </mxCell>
        <mxCell id="TLC4FxBc1BaUloefRsDS-2" style="edgeStyle=orthogonalEdgeStyle;curved=1;rounded=0;orthogonalLoop=1;jettySize=auto;html=1;" parent="1" source="A6VqSCoXwRXT_nMqE62j-41" target="A6VqSCoXwRXT_nMqE62j-69" edge="1">
          <mxGeometry relative="1" as="geometry">
            <Array as="points">
              <mxPoint x="980" y="220" />
            </Array>
          </mxGeometry>
        </mxCell>
        <mxCell id="A6VqSCoXwRXT_nMqE62j-41" value="&lt;pre style=&quot;background-color: #282c34 ; color: #bbbbbb ; font-family: &amp;#34;jetbrains mono&amp;#34; , monospace ; font-size: 10.5pt&quot;&gt;task.&lt;span style=&quot;color: #61afef&quot;&gt;getProcessInstanceId&lt;/span&gt;&lt;span style=&quot;color: #d19a66&quot;&gt;()&lt;/span&gt;&lt;/pre&gt;" style="text;html=1;strokeColor=none;fillColor=none;align=center;verticalAlign=middle;whiteSpace=wrap;rounded=0;" parent="1" vertex="1">
          <mxGeometry x="960" y="460" width="40" height="20" as="geometry" />
        </mxCell>
        <mxCell id="A6VqSCoXwRXT_nMqE62j-46" style="edgeStyle=orthogonalEdgeStyle;curved=1;rounded=0;orthogonalLoop=1;jettySize=auto;html=1;entryX=0;entryY=0.5;entryDx=0;entryDy=0;" parent="1" source="A6VqSCoXwRXT_nMqE62j-44" target="A6VqSCoXwRXT_nMqE62j-47" edge="1">
          <mxGeometry relative="1" as="geometry">
            <mxPoint x="1040" y="600" as="targetPoint" />
          </mxGeometry>
        </mxCell>
        <mxCell id="A6VqSCoXwRXT_nMqE62j-44" value="&lt;pre style=&quot;background-color: #282c34 ; color: #bbbbbb ; font-family: &amp;#34;jetbrains mono&amp;#34; , monospace ; font-size: 10.5pt&quot;&gt;&lt;span style=&quot;color: #e5c07b&quot;&gt;ProcessInstance&lt;/span&gt;&lt;/pre&gt;" style="ellipse;whiteSpace=wrap;html=1;" parent="1" vertex="1">
          <mxGeometry x="860" y="560" width="120" height="80" as="geometry" />
        </mxCell>
        <mxCell id="A6VqSCoXwRXT_nMqE62j-45" value="查询主流程" style="text;html=1;strokeColor=none;fillColor=none;align=center;verticalAlign=middle;whiteSpace=wrap;rounded=0;" parent="1" vertex="1">
          <mxGeometry x="885" y="330" width="70" height="20" as="geometry" />
        </mxCell>
        <mxCell id="A6VqSCoXwRXT_nMqE62j-64" style="edgeStyle=orthogonalEdgeStyle;rounded=0;orthogonalLoop=1;jettySize=auto;html=1;entryX=0;entryY=0;entryDx=0;entryDy=27.5;entryPerimeter=0;" parent="1" source="A6VqSCoXwRXT_nMqE62j-47" target="A6VqSCoXwRXT_nMqE62j-62" edge="1">
          <mxGeometry relative="1" as="geometry">
            <mxPoint x="1190" y="480" as="targetPoint" />
            <Array as="points">
              <mxPoint x="1205" y="600" />
              <mxPoint x="1205" y="558" />
            </Array>
          </mxGeometry>
        </mxCell>
        <mxCell id="A6VqSCoXwRXT_nMqE62j-47" value="&lt;pre style=&quot;background-color: #282c34 ; color: #bbbbbb ; font-family: &amp;#34;jetbrains mono&amp;#34; , monospace ; font-size: 10.5pt&quot;&gt;taskUserExecuteId&lt;/pre&gt;" style="text;html=1;strokeColor=none;fillColor=none;align=center;verticalAlign=middle;whiteSpace=wrap;rounded=0;" parent="1" vertex="1">
          <mxGeometry x="1100" y="590" width="40" height="20" as="geometry" />
        </mxCell>
        <mxCell id="A6VqSCoXwRXT_nMqE62j-48" value="&lt;pre style=&quot;background-color: #282c34 ; color: #bbbbbb ; font-family: &amp;#34;jetbrains mono&amp;#34; , monospace ; font-size: 10.5pt&quot;&gt;&lt;span style=&quot;color: #61afef&quot;&gt;getBusinessKey&lt;/span&gt;&lt;/pre&gt;" style="text;html=1;strokeColor=none;fillColor=none;align=center;verticalAlign=middle;whiteSpace=wrap;rounded=0;" parent="1" vertex="1">
          <mxGeometry x="1000" y="570" width="40" height="20" as="geometry" />
        </mxCell>
        <mxCell id="A6VqSCoXwRXT_nMqE62j-51" value="&lt;pre style=&quot;background-color: #282c34 ; color: #bbbbbb ; font-family: &amp;#34;jetbrains mono&amp;#34; , monospace ; font-size: 10.5pt&quot;&gt;userId：创建人&lt;/pre&gt;&lt;pre style=&quot;background-color: #282c34 ; color: #bbbbbb ; font-family: &amp;#34;jetbrains mono&amp;#34; , monospace ; font-size: 10.5pt&quot;&gt;&lt;pre style=&quot;font-family: &amp;#34;jetbrains mono&amp;#34; , monospace ; font-size: 10.5pt&quot;&gt;taskId&lt;/pre&gt;&lt;/pre&gt;" style="text;html=1;strokeColor=none;fillColor=none;align=center;verticalAlign=middle;whiteSpace=wrap;rounded=0;" parent="1" vertex="1">
          <mxGeometry x="420" y="800" width="40" height="20" as="geometry" />
        </mxCell>
        <mxCell id="A6VqSCoXwRXT_nMqE62j-52" value="&lt;pre style=&quot;background-color: #282c34 ; color: #bbbbbb ; font-family: &amp;#34;jetbrains mono&amp;#34; , monospace ; font-size: 10.5pt&quot;&gt;.&lt;span style=&quot;color: #61afef&quot;&gt;getAssignee&lt;/span&gt;&lt;span style=&quot;color: #d19a66&quot;&gt;()&lt;/span&gt;&lt;/pre&gt;&lt;pre style=&quot;background-color: #282c34 ; color: #bbbbbb ; font-family: &amp;#34;jetbrains mono&amp;#34; , monospace ; font-size: 10.5pt&quot;&gt;&lt;pre style=&quot;font-family: &amp;#34;jetbrains mono&amp;#34; , monospace ; font-size: 10.5pt&quot;&gt;&lt;span style=&quot;color: #61afef&quot;&gt;getId&lt;/span&gt;&lt;/pre&gt;&lt;/pre&gt;" style="text;html=1;strokeColor=none;fillColor=none;align=center;verticalAlign=middle;whiteSpace=wrap;rounded=0;" parent="1" vertex="1">
          <mxGeometry x="420" y="630" width="40" height="20" as="geometry" />
        </mxCell>
        <mxCell id="A6VqSCoXwRXT_nMqE62j-55" value="获取任务信息" style="text;html=1;strokeColor=none;fillColor=none;align=center;verticalAlign=middle;whiteSpace=wrap;rounded=0;" parent="1" vertex="1">
          <mxGeometry x="370" y="740" width="40" height="20" as="geometry" />
        </mxCell>
        <mxCell id="A6VqSCoXwRXT_nMqE62j-61" style="edgeStyle=orthogonalEdgeStyle;curved=1;rounded=0;orthogonalLoop=1;jettySize=auto;html=1;entryX=0.5;entryY=0;entryDx=0;entryDy=0;entryPerimeter=0;" parent="1" source="A6VqSCoXwRXT_nMqE62j-60" target="A6VqSCoXwRXT_nMqE62j-62" edge="1">
          <mxGeometry relative="1" as="geometry">
            <mxPoint x="1300" y="520" as="targetPoint" />
          </mxGeometry>
        </mxCell>
        <mxCell id="A6VqSCoXwRXT_nMqE62j-70" style="edgeStyle=orthogonalEdgeStyle;rounded=0;orthogonalLoop=1;jettySize=auto;html=1;entryX=0.5;entryY=1;entryDx=0;entryDy=0;" parent="1" source="A6VqSCoXwRXT_nMqE62j-60" target="A6VqSCoXwRXT_nMqE62j-69" edge="1">
          <mxGeometry relative="1" as="geometry" />
        </mxCell>
        <mxCell id="A6VqSCoXwRXT_nMqE62j-73" style="edgeStyle=orthogonalEdgeStyle;rounded=0;orthogonalLoop=1;jettySize=auto;html=1;entryX=0;entryY=0.5;entryDx=0;entryDy=0;" parent="1" source="A6VqSCoXwRXT_nMqE62j-60" target="A6VqSCoXwRXT_nMqE62j-74" edge="1">
          <mxGeometry relative="1" as="geometry">
            <mxPoint x="1580" y="399.9999999999998" as="targetPoint" />
          </mxGeometry>
        </mxCell>
        <mxCell id="A6VqSCoXwRXT_nMqE62j-60" value="&lt;pre style=&quot;background-color: #282c34 ; color: #bbbbbb ; font-family: &amp;#34;jetbrains mono&amp;#34; , monospace ; font-size: 10.5pt&quot;&gt;&lt;span style=&quot;color: #ef596f&quot;&gt;taskUserExecuteService&lt;/span&gt;&lt;/pre&gt;" style="shape=step;perimeter=stepPerimeter;whiteSpace=wrap;html=1;fixedSize=1;" parent="1" vertex="1">
          <mxGeometry x="1240" y="360" width="120" height="80" as="geometry" />
        </mxCell>
        <mxCell id="A6VqSCoXwRXT_nMqE62j-62" value="&lt;pre style=&quot;background-color: #282c34 ; color: #bbbbbb ; font-family: &amp;#34;jetbrains mono&amp;#34; , monospace ; font-size: 10.5pt&quot;&gt;&lt;span style=&quot;color: #89ca78&quot;&gt;t_task_user_execute&lt;/span&gt;&lt;/pre&gt;" style="shape=cylinder3;whiteSpace=wrap;html=1;boundedLbl=1;backgroundOutline=1;size=15;" parent="1" vertex="1">
          <mxGeometry x="1270" y="530" width="60" height="80" as="geometry" />
        </mxCell>
        <mxCell id="A6VqSCoXwRXT_nMqE62j-65" value="获取执行信息" style="text;html=1;strokeColor=none;fillColor=none;align=center;verticalAlign=middle;whiteSpace=wrap;rounded=0;" parent="1" vertex="1">
          <mxGeometry x="1270" y="330" width="40" height="20" as="geometry" />
        </mxCell>
        <mxCell id="A6VqSCoXwRXT_nMqE62j-66" value="update" style="text;html=1;strokeColor=none;fillColor=none;align=center;verticalAlign=middle;whiteSpace=wrap;rounded=0;" parent="1" vertex="1">
          <mxGeometry x="690" y="590" width="40" height="20" as="geometry" />
        </mxCell>
        <mxCell id="A6VqSCoXwRXT_nMqE62j-69" value="&lt;pre style=&quot;background-color: #282c34 ; color: #bbbbbb ; font-family: &amp;#34;jetbrains mono&amp;#34; , monospace ; font-size: 10.5pt&quot;&gt;&lt;span style=&quot;color: #ef596f&quot;&gt;processTaskFacade&lt;/span&gt;&lt;/pre&gt;&lt;pre style=&quot;background-color: rgb(40 , 44 , 52) ; font-family: &amp;#34;jetbrains mono&amp;#34; , monospace ; font-size: 10.5pt ; color: rgb(187 , 187 , 187)&quot;&gt;&lt;pre style=&quot;font-family: &amp;#34;jetbrains mono&amp;#34; , monospace ; font-size: 10.5pt&quot;&gt;&lt;span style=&quot;color: #61afef&quot;&gt;completeTask&lt;/span&gt;&lt;/pre&gt;&lt;/pre&gt;" style="shape=step;perimeter=stepPerimeter;whiteSpace=wrap;html=1;fixedSize=1;" parent="1" vertex="1">
          <mxGeometry x="1460" y="170" width="120" height="80" as="geometry" />
        </mxCell>
        <mxCell id="A6VqSCoXwRXT_nMqE62j-72" value="完成带分解任务" style="text;html=1;strokeColor=none;fillColor=none;align=center;verticalAlign=middle;whiteSpace=wrap;rounded=0;" parent="1" vertex="1">
          <mxGeometry x="1465" y="300" width="110" height="20" as="geometry" />
        </mxCell>
        <mxCell id="A6VqSCoXwRXT_nMqE62j-75" style="edgeStyle=orthogonalEdgeStyle;rounded=0;orthogonalLoop=1;jettySize=auto;html=1;startArrow=none;" parent="1" source="A6VqSCoXwRXT_nMqE62j-76" edge="1">
          <mxGeometry relative="1" as="geometry">
            <mxPoint x="1660" y="519.9999999999998" as="targetPoint" />
          </mxGeometry>
        </mxCell>
        <mxCell id="A6VqSCoXwRXT_nMqE62j-106" value="" style="edgeStyle=orthogonalEdgeStyle;rounded=0;orthogonalLoop=1;jettySize=auto;html=1;" parent="1" source="A6VqSCoXwRXT_nMqE62j-74" target="A6VqSCoXwRXT_nMqE62j-105" edge="1">
          <mxGeometry relative="1" as="geometry" />
        </mxCell>
        <mxCell id="A6VqSCoXwRXT_nMqE62j-74" value="&lt;pre style=&quot;background-color: #282c34 ; color: #bbbbbb ; font-family: &amp;#34;jetbrains mono&amp;#34; , monospace ; font-size: 10.5pt&quot;&gt;&lt;span style=&quot;color: #ef596f&quot;&gt;taskInfoService&lt;/span&gt;&lt;/pre&gt;" style="shape=step;perimeter=stepPerimeter;whiteSpace=wrap;html=1;fixedSize=1;" parent="1" vertex="1">
          <mxGeometry x="1600" y="360" width="120" height="80" as="geometry" />
        </mxCell>
        <mxCell id="A6VqSCoXwRXT_nMqE62j-76" value="&lt;pre style=&quot;background-color: #282c34 ; color: #bbbbbb ; font-family: &amp;#34;jetbrains mono&amp;#34; , monospace ; font-size: 10.5pt&quot;&gt;&lt;span style=&quot;color: #61afef&quot;&gt;selectById&lt;/span&gt;&lt;span style=&quot;color: #d19a66&quot;&gt;(&lt;/span&gt;taskUserExecute.&lt;span style=&quot;color: #61afef&quot;&gt;getTaskid&lt;/span&gt;&lt;span style=&quot;color: #d19a66&quot;&gt;())&lt;/span&gt;&lt;/pre&gt;" style="text;html=1;strokeColor=none;fillColor=none;align=center;verticalAlign=middle;whiteSpace=wrap;rounded=0;" parent="1" vertex="1">
          <mxGeometry x="1640" y="460" width="40" height="20" as="geometry" />
        </mxCell>
        <mxCell id="A6VqSCoXwRXT_nMqE62j-77" value="" style="edgeStyle=orthogonalEdgeStyle;rounded=0;orthogonalLoop=1;jettySize=auto;html=1;endArrow=none;" parent="1" source="A6VqSCoXwRXT_nMqE62j-74" target="A6VqSCoXwRXT_nMqE62j-76" edge="1">
          <mxGeometry relative="1" as="geometry">
            <mxPoint x="1660" y="519.9999999999998" as="targetPoint" />
            <mxPoint x="1660" y="439.9999999999998" as="sourcePoint" />
          </mxGeometry>
        </mxCell>
        <mxCell id="A6VqSCoXwRXT_nMqE62j-90" style="edgeStyle=orthogonalEdgeStyle;rounded=0;orthogonalLoop=1;jettySize=auto;html=1;" parent="1" source="A6VqSCoXwRXT_nMqE62j-78" target="A6VqSCoXwRXT_nMqE62j-92" edge="1">
          <mxGeometry relative="1" as="geometry">
            <mxPoint x="1660" y="769.9999999999998" as="targetPoint" />
          </mxGeometry>
        </mxCell>
        <mxCell id="A6VqSCoXwRXT_nMqE62j-99" style="edgeStyle=orthogonalEdgeStyle;rounded=0;orthogonalLoop=1;jettySize=auto;html=1;entryX=0.5;entryY=0;entryDx=0;entryDy=0;" parent="1" source="A6VqSCoXwRXT_nMqE62j-78" edge="1">
          <mxGeometry relative="1" as="geometry">
            <mxPoint x="995" y="900" as="targetPoint" />
          </mxGeometry>
        </mxCell>
        <mxCell id="A6VqSCoXwRXT_nMqE62j-78" value="&lt;pre style=&quot;background-color: #282c34 ; color: #bbbbbb ; font-family: &amp;#34;jetbrains mono&amp;#34; , monospace ; font-size: 10.5pt&quot;&gt;&lt;span style=&quot;color: #e5c07b&quot;&gt;TaskInfo&lt;/span&gt;&lt;/pre&gt;" style="ellipse;whiteSpace=wrap;html=1;" parent="1" vertex="1">
          <mxGeometry x="1600" y="650" width="120" height="80" as="geometry" />
        </mxCell>
        <mxCell id="A6VqSCoXwRXT_nMqE62j-83" style="edgeStyle=orthogonalEdgeStyle;rounded=0;orthogonalLoop=1;jettySize=auto;html=1;" parent="1" source="A6VqSCoXwRXT_nMqE62j-82" target="A6VqSCoXwRXT_nMqE62j-78" edge="1">
          <mxGeometry relative="1" as="geometry" />
        </mxCell>
        <mxCell id="A6VqSCoXwRXT_nMqE62j-82" value="细化中" style="triangle;whiteSpace=wrap;html=1;" parent="1" vertex="1">
          <mxGeometry x="1460" y="650" width="60" height="80" as="geometry" />
        </mxCell>
        <mxCell id="A6VqSCoXwRXT_nMqE62j-84" value="&lt;pre style=&quot;background-color: #282c34 ; color: #bbbbbb ; font-family: &amp;#34;jetbrains mono&amp;#34; , monospace ; font-size: 10.5pt&quot;&gt;&lt;span style=&quot;color: #61afef&quot;&gt;TaskStatus&lt;/span&gt;&lt;span style=&quot;color: #d19a66&quot;&gt;(1)&lt;/span&gt;&lt;/pre&gt;" style="text;html=1;strokeColor=none;fillColor=none;align=center;verticalAlign=middle;whiteSpace=wrap;rounded=0;" parent="1" vertex="1">
          <mxGeometry x="1535" y="660" width="40" height="20" as="geometry" />
        </mxCell>
        <mxCell id="A6VqSCoXwRXT_nMqE62j-87" style="edgeStyle=orthogonalEdgeStyle;rounded=0;orthogonalLoop=1;jettySize=auto;html=1;entryX=0.5;entryY=0;entryDx=0;entryDy=0;" parent="1" source="A6VqSCoXwRXT_nMqE62j-86" target="A6VqSCoXwRXT_nMqE62j-78" edge="1">
          <mxGeometry relative="1" as="geometry" />
        </mxCell>
        <mxCell id="A6VqSCoXwRXT_nMqE62j-86" value="&lt;pre style=&quot;background-color: rgb(40 , 44 , 52) ; color: rgb(187 , 187 , 187) ; font-family: &amp;#34;jetbrains mono&amp;#34; , monospace ; font-size: 10.5pt&quot;&gt;&lt;span style=&quot;color: rgb(137 , 202 , 120)&quot;&gt;t_task_info&lt;/span&gt;&lt;/pre&gt;" style="shape=cylinder3;whiteSpace=wrap;html=1;boundedLbl=1;backgroundOutline=1;size=15;" parent="1" vertex="1">
          <mxGeometry x="1630" y="520" width="60" height="80" as="geometry" />
        </mxCell>
        <mxCell id="A6VqSCoXwRXT_nMqE62j-92" value="&lt;pre style=&quot;background-color: rgb(40 , 44 , 52) ; color: rgb(187 , 187 , 187) ; font-family: &amp;#34;jetbrains mono&amp;#34; , monospace ; font-size: 10.5pt&quot;&gt;&lt;span style=&quot;color: rgb(137 , 202 , 120)&quot;&gt;t_task_info&lt;/span&gt;&lt;/pre&gt;" style="shape=cylinder3;whiteSpace=wrap;html=1;boundedLbl=1;backgroundOutline=1;size=15;" parent="1" vertex="1">
          <mxGeometry x="1630" y="769.9999999999998" width="60" height="80" as="geometry" />
        </mxCell>
        <mxCell id="A6VqSCoXwRXT_nMqE62j-93" value="更新" style="text;html=1;strokeColor=none;fillColor=none;align=center;verticalAlign=middle;whiteSpace=wrap;rounded=0;" parent="1" vertex="1">
          <mxGeometry x="1690" y="740" width="40" height="20" as="geometry" />
        </mxCell>
        <mxCell id="A6VqSCoXwRXT_nMqE62j-95" value="更新任务为细化中" style="text;html=1;strokeColor=none;fillColor=none;align=center;verticalAlign=middle;whiteSpace=wrap;rounded=0;" parent="1" vertex="1">
          <mxGeometry x="1615" y="330" width="90" height="20" as="geometry" />
        </mxCell>
        <mxCell id="A6VqSCoXwRXT_nMqE62j-97" value="应该可以一起更新，如果为可能为null，再第二步一起完成就好" style="text;html=1;strokeColor=none;fillColor=none;align=center;verticalAlign=middle;whiteSpace=wrap;rounded=0;" parent="1" vertex="1">
          <mxGeometry x="840" y="905" width="310" height="20" as="geometry" />
        </mxCell>
        <mxCell id="A6VqSCoXwRXT_nMqE62j-101" style="edgeStyle=orthogonalEdgeStyle;rounded=0;orthogonalLoop=1;jettySize=auto;html=1;entryX=0;entryY=0.5;entryDx=0;entryDy=0;" parent="1" source="A6VqSCoXwRXT_nMqE62j-3" target="A6VqSCoXwRXT_nMqE62j-33" edge="1">
          <mxGeometry relative="1" as="geometry">
            <Array as="points">
              <mxPoint x="170" y="260" />
              <mxPoint x="493" y="260" />
              <mxPoint x="493" y="230" />
            </Array>
          </mxGeometry>
        </mxCell>
        <mxCell id="A6VqSCoXwRXT_nMqE62j-108" style="edgeStyle=orthogonalEdgeStyle;rounded=0;orthogonalLoop=1;jettySize=auto;html=1;entryX=0.5;entryY=0;entryDx=0;entryDy=0;entryPerimeter=0;" parent="1" source="A6VqSCoXwRXT_nMqE62j-105" target="A6VqSCoXwRXT_nMqE62j-113" edge="1">
          <mxGeometry relative="1" as="geometry">
            <mxPoint x="1980" y="540" as="targetPoint" />
          </mxGeometry>
        </mxCell>
        <mxCell id="A6VqSCoXwRXT_nMqE62j-119" style="edgeStyle=orthogonalEdgeStyle;rounded=0;orthogonalLoop=1;jettySize=auto;html=1;entryX=0.5;entryY=0;entryDx=0;entryDy=0;" parent="1" source="A6VqSCoXwRXT_nMqE62j-105" target="A6VqSCoXwRXT_nMqE62j-120" edge="1">
          <mxGeometry relative="1" as="geometry">
            <mxPoint x="2180" y="479.9999999999998" as="targetPoint" />
          </mxGeometry>
        </mxCell>
        <mxCell id="A6VqSCoXwRXT_nMqE62j-122" style="edgeStyle=orthogonalEdgeStyle;rounded=0;orthogonalLoop=1;jettySize=auto;html=1;entryX=0;entryY=0.5;entryDx=0;entryDy=0;" parent="1" source="A6VqSCoXwRXT_nMqE62j-105" target="TLC4FxBc1BaUloefRsDS-3" edge="1">
          <mxGeometry relative="1" as="geometry">
            <mxPoint x="2390" y="399.9999999999998" as="targetPoint" />
          </mxGeometry>
        </mxCell>
        <mxCell id="A6VqSCoXwRXT_nMqE62j-105" value="&lt;pre style=&quot;background-color: #282c34 ; color: #bbbbbb ; font-family: &amp;#34;jetbrains mono&amp;#34; , monospace ; font-size: 10.5pt&quot;&gt;&lt;pre style=&quot;font-family: &amp;#34;jetbrains mono&amp;#34; , monospace ; font-size: 10.5pt&quot;&gt;&lt;span style=&quot;color: #ef596f&quot;&gt;taskUserExecuteService&lt;/span&gt;&lt;/pre&gt;&lt;/pre&gt;" style="shape=step;perimeter=stepPerimeter;whiteSpace=wrap;html=1;fixedSize=1;" parent="1" vertex="1">
          <mxGeometry x="1920" y="360" width="120" height="80" as="geometry" />
        </mxCell>
        <mxCell id="A6VqSCoXwRXT_nMqE62j-107" value="细化中，非创建人单位收到通知" style="text;html=1;strokeColor=none;fillColor=none;align=center;verticalAlign=middle;whiteSpace=wrap;rounded=0;" parent="1" vertex="1">
          <mxGeometry x="1890" y="330" width="160" height="20" as="geometry" />
        </mxCell>
        <mxCell id="A6VqSCoXwRXT_nMqE62j-111" value="&lt;pre style=&quot;background-color: #282c34 ; color: #bbbbbb ; font-family: &amp;#34;jetbrains mono&amp;#34; , monospace ; font-size: 10.5pt&quot;&gt;.&lt;span style=&quot;color: #61afef&quot;&gt;eq&lt;/span&gt;&lt;span style=&quot;color: #d19a66&quot;&gt;(&lt;/span&gt;&lt;span style=&quot;color: #89ca78&quot;&gt;&quot;taskid&quot;&lt;/span&gt;,taskInfo.&lt;span style=&quot;color: #61afef&quot;&gt;getId&lt;/span&gt;&lt;span style=&quot;color: #d19a66&quot;&gt;())&lt;/span&gt;&lt;/pre&gt;" style="text;html=1;strokeColor=none;fillColor=none;align=center;verticalAlign=middle;whiteSpace=wrap;rounded=0;" parent="1" vertex="1">
          <mxGeometry x="1970" y="470" width="40" height="20" as="geometry" />
        </mxCell>
        <mxCell id="A6VqSCoXwRXT_nMqE62j-116" style="edgeStyle=orthogonalEdgeStyle;rounded=0;orthogonalLoop=1;jettySize=auto;html=1;entryX=0.25;entryY=0;entryDx=0;entryDy=0;" parent="1" source="A6VqSCoXwRXT_nMqE62j-113" target="A6VqSCoXwRXT_nMqE62j-115" edge="1">
          <mxGeometry relative="1" as="geometry" />
        </mxCell>
        <mxCell id="A6VqSCoXwRXT_nMqE62j-113" value="&lt;pre style=&quot;background-color: #282c34 ; color: #bbbbbb ; font-family: &amp;#34;jetbrains mono&amp;#34; , monospace ; font-size: 10.5pt&quot;&gt;&lt;span style=&quot;color: #89ca78&quot;&gt;t_task_user_execute&lt;/span&gt;&lt;/pre&gt;" style="shape=cylinder3;whiteSpace=wrap;html=1;boundedLbl=1;backgroundOutline=1;size=15;" parent="1" vertex="1">
          <mxGeometry x="1950" y="540" width="60" height="80" as="geometry" />
        </mxCell>
        <mxCell id="A6VqSCoXwRXT_nMqE62j-117" style="edgeStyle=orthogonalEdgeStyle;rounded=0;orthogonalLoop=1;jettySize=auto;html=1;" parent="1" source="A6VqSCoXwRXT_nMqE62j-115" edge="1">
          <mxGeometry relative="1" as="geometry">
            <mxPoint x="1990" y="739.9999999999998" as="targetPoint" />
          </mxGeometry>
        </mxCell>
        <mxCell id="A6VqSCoXwRXT_nMqE62j-115" value="&lt;pre style=&quot;background-color: #282c34 ; color: #bbbbbb ; font-family: &amp;#34;jetbrains mono&amp;#34; , monospace ; font-size: 10.5pt&quot;&gt;&lt;span style=&quot;color: #e5c07b&quot;&gt;List&lt;/span&gt;&lt;span style=&quot;color: #d19a66&quot;&gt;&amp;lt;&lt;/span&gt;&lt;span style=&quot;color: #e5c07b&quot;&gt;TaskUserExecute&lt;/span&gt;&lt;span style=&quot;color: #d19a66&quot;&gt;&amp;gt;&lt;/span&gt;&lt;/pre&gt;" style="text;html=1;strokeColor=none;fillColor=none;align=center;verticalAlign=middle;whiteSpace=wrap;rounded=0;" parent="1" vertex="1">
          <mxGeometry x="1970" y="670" width="40" height="20" as="geometry" />
        </mxCell>
        <mxCell id="A6VqSCoXwRXT_nMqE62j-118" value="非当前创建人" style="text;html=1;strokeColor=none;fillColor=none;align=center;verticalAlign=middle;whiteSpace=wrap;rounded=0;" parent="1" vertex="1">
          <mxGeometry x="2010" y="700" width="40" height="20" as="geometry" />
        </mxCell>
        <mxCell id="A6VqSCoXwRXT_nMqE62j-120" value="&lt;pre style=&quot;background-color: #282c34 ; color: #bbbbbb ; font-family: &amp;#34;jetbrains mono&amp;#34; , monospace ; font-size: 10.5pt&quot;&gt;&lt;span style=&quot;color: #ef596f&quot;&gt;dingTalkService&lt;/span&gt;&lt;/pre&gt;" style="shape=step;perimeter=stepPerimeter;whiteSpace=wrap;html=1;fixedSize=1;" parent="1" vertex="1">
          <mxGeometry x="2125" y="490" width="120" height="80" as="geometry" />
        </mxCell>
        <mxCell id="A6VqSCoXwRXT_nMqE62j-121" value="对上述人发送钉钉消息（单位不发" style="text;html=1;strokeColor=none;fillColor=none;align=center;verticalAlign=middle;whiteSpace=wrap;rounded=0;" parent="1" vertex="1">
          <mxGeometry x="2060" y="580" width="230" height="20" as="geometry" />
        </mxCell>
        <mxCell id="TLC4FxBc1BaUloefRsDS-6" style="edgeStyle=orthogonalEdgeStyle;curved=1;rounded=0;orthogonalLoop=1;jettySize=auto;html=1;entryX=0;entryY=0.5;entryDx=0;entryDy=0;" parent="1" source="TLC4FxBc1BaUloefRsDS-3" target="TLC4FxBc1BaUloefRsDS-7" edge="1">
          <mxGeometry relative="1" as="geometry">
            <mxPoint x="2600" y="400" as="targetPoint" />
          </mxGeometry>
        </mxCell>
        <mxCell id="TLC4FxBc1BaUloefRsDS-3" value="&lt;pre style=&quot;background-color: #282c34 ; color: #bbbbbb ; font-family: &amp;#34;jetbrains mono&amp;#34; , monospace ; font-size: 10.5pt&quot;&gt;&lt;span style=&quot;color: #ef596f&quot;&gt;actExtendFatherprocessService&lt;/span&gt;&lt;/pre&gt;&lt;pre style=&quot;background-color: #282c34 ; color: #bbbbbb ; font-family: &amp;#34;jetbrains mono&amp;#34; , monospace ; font-size: 10.5pt&quot;&gt;&lt;pre style=&quot;font-family: &amp;#34;jetbrains mono&amp;#34; , monospace ; font-size: 10.5pt&quot;&gt;&lt;span style=&quot;color: #ef596f&quot;&gt;runtimeService&lt;/span&gt;&lt;/pre&gt;&lt;/pre&gt;" style="shape=step;perimeter=stepPerimeter;whiteSpace=wrap;html=1;fixedSize=1;" parent="1" vertex="1">
          <mxGeometry x="2380" y="360" width="120" height="80" as="geometry" />
        </mxCell>
        <mxCell id="TLC4FxBc1BaUloefRsDS-5" value="如果有子流程，子流程全部删除！！！" style="text;html=1;strokeColor=none;fillColor=none;align=center;verticalAlign=middle;whiteSpace=wrap;rounded=0;" parent="1" vertex="1">
          <mxGeometry x="2340" y="330" width="180" height="20" as="geometry" />
        </mxCell>
        <mxCell id="TLC4FxBc1BaUloefRsDS-7" value="&lt;pre style=&quot;background-color: #282c34 ; color: #bbbbbb ; font-family: &amp;#34;jetbrains mono&amp;#34; , monospace ; font-size: 10.5pt&quot;&gt;&lt;span style=&quot;color: #ef596f&quot;&gt;taskService&lt;/span&gt;&lt;/pre&gt;&lt;pre style=&quot;background-color: #282c34 ; color: #bbbbbb ; font-family: &amp;#34;jetbrains mono&amp;#34; , monospace ; font-size: 10.5pt&quot;&gt;&lt;pre style=&quot;font-family: &amp;#34;jetbrains mono&amp;#34; , monospace ; font-size: 10.5pt&quot;&gt;&lt;span style=&quot;color: #ef596f&quot;&gt;taskMessageService&lt;/span&gt;&lt;/pre&gt;&lt;pre style=&quot;font-family: &amp;#34;jetbrains mono&amp;#34; , monospace ; font-size: 10.5pt&quot;&gt;&lt;span style=&quot;color: #ef596f&quot;&gt;coreNoticeService&lt;/span&gt;&lt;/pre&gt;&lt;/pre&gt;" style="shape=step;perimeter=stepPerimeter;whiteSpace=wrap;html=1;fixedSize=1;" parent="1" vertex="1">
          <mxGeometry x="2600" y="360" width="120" height="80" as="geometry" />
        </mxCell>
        <mxCell id="TLC4FxBc1BaUloefRsDS-8" value="任务完成（待分解是第一个task&#39;），对后续任务设置结束时间" style="text;html=1;strokeColor=none;fillColor=none;align=center;verticalAlign=middle;whiteSpace=wrap;rounded=0;" parent="1" vertex="1">
          <mxGeometry x="2570" y="330" width="200" height="20" as="geometry" />
        </mxCell>
        <mxCell id="TLC4FxBc1BaUloefRsDS-9" value="保存消息和发送钉钉消息" style="text;html=1;strokeColor=none;fillColor=none;align=center;verticalAlign=middle;whiteSpace=wrap;rounded=0;" parent="1" vertex="1">
          <mxGeometry x="2640" y="460" width="40" height="20" as="geometry" />
        </mxCell>
      </root>
    </mxGraphModel>
  </diagram>
</mxfile>
